<?xml version="1.0" encoding="utf-8"?>
<!-- Generator: Adobe Illustrator 23.0.2, SVG Export Plug-In . SVG Version: 6.00 Build 0)  -->
<svg version="1.1" xmlns="http://www.w3.org/2000/svg" xmlns:xlink="http://www.w3.org/1999/xlink" x="0px" y="0px"
	 viewBox="0 0 637.4 288.5" enable-background="new 0 0 637.4 288.5" xml:space="preserve">
<g id="Guides" display="none">
</g>
<g id="Layer_1">
	<g>
		<path fill="#004C93" d="M368.9,158.5c0,13.3-3.4,24.9-10.3,34.7c-6.9,9.8-16.4,17.2-28.5,22.3c-12.1,5.1-25.6,7.6-40.3,7.6
			c-8.4,0-16.2-0.5-23.4-1.5c-7.2-1-13.8-2.6-19.8-4.6c-6-2-11.9-4.9-17.8-8.5c-5.9-3.7-11.5-8.1-16.7-13.4l27-27
			c11.9,12,29,18,51.4,18c12.3,0,21.6-2.3,28.1-6.8c6.5-4.5,9.7-11,9.7-19.5c0-7.8-2.2-13.8-6.7-18c-4-3.7-10.3-6.2-18.8-7.4
			l-25.7-3.7c-18.2-2.6-31.9-8.5-41.3-17.5c-10.2-10.2-15.4-24.2-15.4-42c0-19.3,6.7-34.9,20.1-46.8c13.4-11.9,31.5-17.8,54.2-17.8
			c15,0,28,2,39,6c11,4,21,10.3,29.8,19l-26.4,26.1c-6-5.7-12.6-9.6-19.8-11.7c-7.2-2-15.1-3.1-23.9-3.1c-10.6,0-18.7,2.5-24.4,7.6
			c-5.6,5.1-8.5,11.5-8.5,19.4c0,6.2,2.1,11.3,6.3,15.2c4.6,4.4,11.1,7.2,19.7,8.3l25.1,3.6c18.2,2.4,31.7,7.9,40.7,16.5
			C363.4,123.7,368.9,138.8,368.9,158.5z"/>
		<path fill="#004C93" d="M188.4,129c-5.8-7.7-12.7-13.3-20.7-16.9c2.9-1.4,5.9-3.3,8.9-5.8c3-2.5,5.9-5.7,8.6-9.6
			c2.7-3.9,4.9-8.3,6.4-13c1.6-4.7,2.3-9.9,2.3-15.6c0-12.2-2.6-22.7-7.7-31.7c-5.2-9-12.7-15.9-22.7-20.7
			c-10-4.9-21.7-7.3-35.3-7.3H42.6v176h41.6v-52.3h43.4c9.1,0,16,2.4,20.7,7.2c4.7,4.8,7.1,11.1,7.1,18.8c0,7.7-2.4,14-7.2,18.9
			c-4.8,4.9-11.6,7.4-20.6,7.4H84.3v37.1h47.5c9.6,0,18.5-1.4,26.4-4.1c8-2.7,14.9-6.7,20.6-11.8c5.7-5.2,10.2-11.6,13.4-19.4
			c3.2-7.8,4.8-16.5,4.8-26C197.1,147,194.2,136.7,188.4,129z M145.3,87.8c-4.8,4.4-11.6,6.7-20.4,6.7H84.3V45.4h40.6
			c6,0,11.1,1,15.1,3c4,2,7.1,4.8,9.3,8.6c2.2,3.7,3.3,8,3.3,13C152.5,77.4,150.1,83.4,145.3,87.8z"/>
		<polyline fill="#004C93" points="542.7,184.2 584.4,184.2 584.4,8.3 543.3,8.3 487.9,123.4 432.4,8.3 391.3,8.3 391.3,221.3 
			433,221.3 433,97.1 473.9,177.9 502.1,177.9 542.7,97.1 		"/>
		<rect x="542.7" y="184.2" fill="#F18E00" width="41.6" height="37.1"/>
		<rect x="1" y="184.2" fill="#F18E00" width="41.6" height="37.1"/>
		<g>
			<path fill="#004C93" d="M41.9,285.2v-25.6h2.7v25.6H41.9z"/>
			<path fill="#004C93" d="M68,285.2v-11.7H55.8v11.7h-2.7v-25.6h2.7v11.5H68v-11.5h2.7v25.6H68z"/>
			<path fill="#004C93" d="M93.6,285.2l-5.8-11.3h-6.1v11.3h-2.7v-25.6h9.8c4.5,0,7.6,2.7,7.6,7.1c0,3.7-2.3,6.2-5.6,6.9l6.1,11.6
				H93.6z M88.5,262.1h-6.8v9.4h6.8c3,0,5.1-1.5,5.1-4.7C93.6,263.7,91.4,262.1,88.5,262.1z"/>
			<path fill="#004C93" d="M122.1,274.7h-6.8v10.5h-2.7v-25.6h9.5c4.6,0,7.9,2.9,7.9,7.5C130,271.7,126.8,274.7,122.1,274.7z
				 M121.9,262.1h-6.5v10.2h6.5c3.2,0,5.4-1.7,5.4-5.1C127.3,263.8,125.1,262.1,121.9,262.1z"/>
			<path fill="#004C93" d="M135.5,285.2v-25.6h15.9v2.4h-13.1v9h11.2v2.4h-11.2v9.2h13.1v2.4H135.5z"/>
			<path fill="#004C93" d="M172.7,285.2l-5.8-11.3h-6.1v11.3H158v-25.6h9.8c4.5,0,7.6,2.7,7.6,7.1c0,3.7-2.3,6.2-5.6,6.9l6.1,11.6
				H172.7z M167.6,262.1h-6.8v9.4h6.8c3,0,5.1-1.5,5.1-4.7C172.7,263.7,170.5,262.1,167.6,262.1z"/>
			<path fill="#004C93" d="M189.1,285.4c-3.8,0-6.4-1-8.8-3.4l1.9-1.9c2.1,2.1,4.1,2.8,7,2.8c3.7,0,6-1.8,6-4.7
				c0-1.3-0.4-2.5-1.2-3.2c-0.8-0.7-1.5-0.9-3.3-1.2l-3-0.5c-2-0.3-3.6-1-4.7-1.9c-1.3-1.1-1.9-2.7-1.9-4.8c0-4.3,3.1-7.2,8.2-7.2
				c3.3,0,5.4,0.8,7.6,2.8l-1.8,1.8c-1.6-1.4-3.3-2.2-6-2.2c-3.4,0-5.4,1.9-5.4,4.7c0,1.3,0.4,2.3,1.1,2.9c0.8,0.7,2.1,1.2,3.4,1.4
				l2.8,0.4c2.4,0.4,3.6,0.9,4.7,1.8c1.4,1.2,2.2,2.9,2.2,5.1C197.9,282.7,194.4,285.4,189.1,285.4z"/>
			<path fill="#004C93" d="M219,282.8c-1.7,1.7-4,2.7-6.5,2.7c-2.5,0-4.8-0.9-6.5-2.7c-2.4-2.4-2.4-4.9-2.4-10.3
				c0-5.4,0-7.9,2.4-10.3c1.7-1.7,4-2.7,6.5-2.7c2.5,0,4.8,0.9,6.5,2.7c2.4,2.4,2.4,4.9,2.4,10.3C221.4,277.8,221.4,280.4,219,282.8
				z M216.8,263.7c-1.1-1.1-2.7-1.8-4.4-1.8c-1.7,0-3.3,0.7-4.4,1.8c-1.6,1.7-1.8,3.4-1.8,8.7c0,5.3,0.2,7.1,1.8,8.7
				c1.1,1.1,2.7,1.8,4.4,1.8c1.7,0,3.3-0.7,4.4-1.8c1.6-1.7,1.8-3.4,1.8-8.7C218.6,267.1,218.4,265.3,216.8,263.7z M208.6,256.9
				c-0.9,0-1.6-0.7-1.6-1.6c0-0.9,0.7-1.7,1.6-1.7c0.9,0,1.6,0.8,1.6,1.7C210.2,256.2,209.5,256.9,208.6,256.9z M216.2,256.9
				c-0.9,0-1.6-0.7-1.6-1.6c0-0.9,0.7-1.7,1.6-1.7c0.9,0,1.6,0.8,1.6,1.7C217.8,256.2,217.1,256.9,216.2,256.9z"/>
			<path fill="#004C93" d="M244.8,285.2l-13.6-20.5v20.5h-2.7v-25.6h2.6l13.6,20.4v-20.4h2.7v25.6H244.8z"/>
			<path fill="#004C93" d="M255.1,285.2v-25.6h2.7v23.1h13.1v2.4H255.1z"/>
			<path fill="#004C93" d="M276.7,285.2v-25.6h2.7v25.6H276.7z"/>
			<path fill="#004C93" d="M295.9,285.4c-2.5,0-4.8-0.9-6.5-2.7c-2.4-2.4-2.4-4.9-2.4-10.3c0-5.4,0-7.9,2.4-10.3
				c1.7-1.7,4-2.7,6.5-2.7c3.1,0,5.2,1.2,7.2,3.1l-1.8,1.8c-1.6-1.5-2.9-2.5-5.3-2.5c-1.7,0-3.3,0.6-4.4,1.8
				c-1.6,1.7-1.8,3.4-1.8,8.8c0,5.3,0.2,7.1,1.8,8.8c1.1,1.1,2.7,1.8,4.4,1.8c2.4,0,3.8-1,5.3-2.5l1.8,1.8
				C301.1,284.2,299,285.4,295.9,285.4z"/>
			<path fill="#004C93" d="M324.1,285.2v-11.7H312v11.7h-2.7v-25.6h2.7v11.5h12.1v-11.5h2.7v25.6H324.1z"/>
			<path fill="#004C93" d="M334.8,285.2v-25.6h15.9v2.4h-13.1v9h11.2v2.4h-11.2v9.2h13.1v2.4H334.8z"/>
			<path fill="#004C93" d="M371.7,285.2l-5.8-11.3h-6.1v11.3H357v-25.6h9.8c4.5,0,7.6,2.7,7.6,7.1c0,3.7-2.3,6.2-5.6,6.9l6.1,11.6
				H371.7z M366.5,262.1h-6.8v9.4h6.8c3,0,5.1-1.5,5.1-4.7C371.6,263.7,369.5,262.1,366.5,262.1z"/>
			<path fill="#004C93" d="M391.1,285.2v-25.6H407v2.4h-13.1v9h11.2v2.4h-11.2v9.2H407v2.4H391.1z"/>
			<path fill="#004C93" d="M413.3,285.2v-25.6h2.7v25.6H413.3z"/>
			<path fill="#004C93" d="M440.3,285.2l-13.6-20.5v20.5H424v-25.6h2.6l13.6,20.4v-20.4h2.7v25.6H440.3z"/>
			<path fill="#004C93" d="M466.6,285.2l-7.8-13.6l-5.4,6.5v7.1h-2.7v-25.6h2.7v14.7l11.9-14.7h3.3l-8,9.9l9.2,15.7H466.6z"/>
			<path fill="#004C93" d="M490.1,285.2l-2-5.8h-11.2l-2,5.8H472l9.4-25.6h2.3l9.4,25.6H490.1z M478.6,256.9c-0.9,0-1.6-0.7-1.6-1.6
				c0-0.9,0.7-1.7,1.6-1.7c0.9,0,1.6,0.8,1.6,1.7C480.2,256.2,479.5,256.9,478.6,256.9z M482.6,263.6l-4.8,13.5h9.6L482.6,263.6z
				 M486.2,256.9c-0.9,0-1.6-0.7-1.6-1.6c0-0.9,0.7-1.7,1.6-1.7c0.9,0,1.6,0.8,1.6,1.7C487.8,256.2,487.1,256.9,486.2,256.9z"/>
			<path fill="#004C93" d="M506.7,285.4c-5.2,0-8.9-3.6-8.9-8.7v-17.1h2.7v16.9c0,3.9,2.4,6.4,6.2,6.4c3.7,0,6.2-2.5,6.2-6.4v-16.9
				h2.7v17.1C515.6,281.9,511.9,285.4,506.7,285.4z"/>
			<path fill="#004C93" d="M525.6,262.1v9.4h11.2v2.4h-11.2v11.3h-2.7v-25.6h15.9v2.4H525.6z"/>
			<path fill="#004C93" d="M544.7,285.2v-25.6h15.9v2.4h-13.1v9h11.2v2.4h-11.2v9.2h13.1v2.4H544.7z"/>
			<path fill="#004C93" d="M581.9,285.2l-5.8-11.3h-6.1v11.3h-2.7v-25.6h9.8c4.5,0,7.6,2.7,7.6,7.1c0,3.7-2.3,6.2-5.6,6.9l6.1,11.6
				H581.9z M576.8,262.1h-6.8v9.4h6.8c3,0,5.1-1.5,5.1-4.7C581.9,263.7,579.7,262.1,576.8,262.1z"/>
		</g>
		<g>
			<path fill="#004C93" d="M619.3,6.6c9.2,0,16.4,7.1,16.4,16.2c0,9.3-7.2,16.4-16.5,16.4c-9.3,0-16.6-7.1-16.6-16.4
				c0-9,7.3-16.2,16.6-16.2H619.3z M619.1,9.4c-7.3,0-12.9,6-12.9,13.3c0,7.5,5.6,13.4,13.1,13.4c7.3,0.1,12.7-5.9,12.7-13.3
				c0-7.4-5.4-13.4-12.8-13.4H619.1z M616.2,31.7h-3.2v-17c1.7-0.3,3.6-0.5,5.9-0.5c2.8,0,4.3,0.5,5.4,1.3c1,0.7,1.7,2,1.7,3.6
				c0,2.1-1.5,3.5-3.4,4.1v0.2c1.5,0.6,2.3,1.9,2.8,4.1c0.5,2.6,0.8,3.7,1.2,4.3h-3.3c-0.5-0.6-0.9-2.1-1.3-4.5
				c-0.4-1.8-1.5-2.6-4-2.6h-2V31.7z M616.2,22.1h2.1c2.3,0,4.4-0.7,4.4-2.7c0-1.6-1-2.7-4.1-2.7c-1.2,0-1.9,0.1-2.4,0.2V22.1z"/>
		</g>
	</g>
</g>
<g id="Ebene_3" display="none">
	<g id="Gruppe_3" transform="translate(-827 -448)" display="inline" opacity="0.32">
		<g id="Gruppe_1" transform="translate(827 515.852)">
			<path id="Pfad_1" fill="#F5A40E" d="M20.4,154H2.5c-0.4,0-0.9,0-1.3,0c-1-0.1-1.1-0.2-1.1-1.1c0-0.2,0-0.5,0-0.7
				c0-10.8,0-21.7,0-32.5c0-2,0-2,2-2h36.7c2.3,0,2.3,0,2.3,2.3c0,10.7,0,21.5,0,32.2c0,0.2,0,0.5,0,0.7c-0.1,1-0.2,1.1-1.3,1.2
				c-0.4,0-0.8,0-1.2,0L20.4,154L20.4,154z"/>
			<path id="Pfad_2" fill="#F5A40E" d="M563.1,154H545c-0.4,0-0.9,0-1.3,0c-1-0.1-1.1-0.2-1.1-1.1c0-0.2,0-0.5,0-0.7
				c0-10.8,0-21.7,0-32.5c0-2,0-2,2-2h36.7c2.3,0,2.3,0,2.3,2.3c0,10.7,0,21.5,0,32.2c0,0.2,0,0.5,0,0.7c-0.1,1-0.2,1.1-1.3,1.2
				c-0.4,0-0.8,0-1.2,0L563.1,154L563.1,154z"/>
		</g>
		<g id="bdPFw5" transform="translate(842.347 448)">
			<g id="Gruppe_2" transform="translate(0 0)">
				<path id="Pfad_3" fill="#0C509B" d="M375.7,115.9V16.4c0-1.7,0-3.4,0-5.1c0-1.6,0-1.7,1.6-1.7h23.4c4.7,0,9.4,0,14.1,0
					c0.9-0.1,1.8,0.4,2.1,1.3c2.4,5.1,5,10.2,7.4,15.3c1.7,3.6,3.5,7.2,5.2,10.8c2.4,5,4.8,10,7.2,15c2,4.2,4.2,8.4,6.2,12.6
					c1.8,3.7,3.5,7.4,5.3,11.1c1.7,3.5,3.4,7,5.1,10.6c2.4,4.9,4.7,9.8,7.1,14.7c2.4,4.9,4.8,9.8,7.1,14.6c1.2,2.4,2.3,4.7,3.5,7.1
					c0.1,0.3,0.2,0.5,0.4,0.8c0.2,0.3,0.3,0.8,0.8,0.7c0.4-0.1,0.5-0.5,0.6-0.8c2.3-4.7,4.5-9.3,6.8-14c1.1-2.3,2.3-4.6,3.5-6.9
					c1.4-2.9,2.7-5.8,4.1-8.6c1.8-3.7,3.6-7.4,5.4-11.1c1.1-2.2,2.1-4.4,3.1-6.6c1.4-3,2.8-5.9,4.2-8.9c2.1-4.4,4.2-8.9,6.5-13.3
					c1.5-2.9,2.8-5.9,4.3-8.8c1.7-3.4,3.3-6.8,4.9-10.2c1.5-3,2.9-6.1,4.4-9.1c1.8-3.8,3.5-7.5,5.3-11.3c0.7-1.4,1.4-2.8,2.1-4.2
					c0.2-0.6,0.8-0.9,1.4-0.8c1,0,2.1,0,3.1,0h34.4c2.2,0,2.2,0,2.2,2.2c0,57,0,173.8,0,173.8l-41.1,0.2c0,0,0-56.6-0.1-85.4
					c0-0.1,0-0.3,0-0.4c0-0.4,0.1-1-0.4-1.1c-0.5-0.1-0.6,0.6-0.8,0.9c-2.1,4.1-4.2,8.3-6.3,12.4c-2.4,4.7-4.7,9.4-7.1,14
					c-1.7,3.4-3.5,6.9-5.3,10.3c-1.7,3.4-3.4,6.8-5.1,10.3c-1,2.1-2.1,4.2-3.2,6.3c-2.5,4.8-4.9,9.7-7.4,14.5c-1.7,3.3-3.3,6.6-5,10
					c-0.3,0.8-1.1,1.3-2,1.2c-8.5,0-17.1,0-25.6,0c-0.6,0.1-1.3-0.3-1.5-0.9c-2.6-5.2-5.2-10.3-7.8-15.4c-2.4-4.7-4.8-9.4-7.2-14.1
					c-2.6-5.1-5.1-10.1-7.6-15.2c-3.8-7.5-7.6-14.9-11.4-22.3c-1.8-3.5-3.5-7-5.3-10.5c-0.2-0.3-0.3-0.6-0.5-0.9
					c-0.2-0.3-0.3-0.5-0.7-0.4c-0.4,0.1-0.4,0.4-0.4,0.7c0,1.5-0.1,3-0.1,4.6c0,1,0.1,2.1,0.1,3.1c0,36.7,0,73.4,0,110.1
					c0,1.2,0,2.4,0,3.7c0,0.9-0.1,1-1.1,1c-1.6,0-3.2,0-4.9,0h-33.1c-2,0-2,0-2-2V118.9L375.7,115.9z"/>
				<path id="Pfad_4" fill="#0C509B" d="M26.2,97.3V11.7c0-2.2,0-2.1,2.2-2.1c28.3,0,56.6,0,85,0c3.8,0,7.5,0.5,11.3,0.8
					c2.5,0.2,5,0.6,7.5,1.2c5.2,1.2,10.2,2.9,14.9,5.2c5.5,2.7,10.5,6.2,14.8,10.4c3.9,3.9,7.1,8.5,9.5,13.5c2,4.1,3.5,8.5,4.5,13
					c0.7,3.2,1.1,6.5,1.3,9.7c0.3,3.9,0.2,7.7-0.1,11.6c-0.5,5-1.8,9.9-3.9,14.5c-2.8,6.4-7,12.2-12.2,16.9
					c-2.5,2.2-5.3,4.2-8.3,5.7c-0.1,0-0.2,0.1-0.3,0.1c-0.3,0.2-0.7,0.4-0.7,0.9c0.1,0.5,0.4,0.6,0.8,0.8c1,0.5,2,1,3,1.5
					c5.6,3.2,10.6,7.4,14.7,12.5c2.7,3.2,4.8,6.8,6.5,10.6c1.2,2.9,2.1,5.9,2.7,9c0.7,3.4,0.8,6.8,1.2,10.2c0.2,4.2,0,8.3-0.5,12.4
					c-0.4,4.8-1.5,9.5-3.1,14c-1.9,5.4-4.6,10.5-8,15.1c-2.5,3.4-5.4,6.4-8.6,8.9c-3.8,2.9-7.9,5.4-12.3,7.4c-3,1.4-6.1,2.5-9.3,3.4
					c-3.4,0.9-6.9,1.6-10.5,2.2c-6.1,0.8-12.3,1-18.5,0.9c-13.1,0-26.2,0-39.3,0c-2.1,0-2.1,0-2.1-2.1c0-10.9,0-21.8,0-32.6
					c0-1.8,0-1.8,1.8-1.8c13.4,0,26.9,0,40.3,0c3.8,0.1,7.5-0.3,11.2-1.3c5.3-1.5,9.9-4.7,13-9.2c2.3-3.3,3.8-7.1,4.5-11
					c0.1-0.8,0.2-1.7,0.2-2.5c0-1.6,0-3.2,0-4.9c0-2.5-0.4-4.9-1.3-7.2c-1.1-3.4-2.9-6.5-5.3-9c-2.5-2.7-5.7-4.7-9.1-5.9
					c-3.2-1.1-6.5-1.7-9.9-1.8c-5.1-0.2-10.3-0.1-15.4-0.1c-9.4,0-18.7,0-28.1,0c-2.4,0-2.4,0-2.4,2.5c0,15.4,0,30.9,0,46.3
					c0,0.9,0,1.8,0,2.6c0.1,0.4-0.3,0.9-0.7,0.9c-0.1,0-0.1,0-0.2,0c-0.3,0-0.7,0-1,0H27.8c-0.2,0-0.5,0-0.7,0
					c-0.6,0-0.9-0.2-0.9-0.9c0-0.2,0-0.5,0-0.7C26.2,154.7,26.2,126,26.2,97.3z M67.5,71L67.5,71c0,7.4,0,14.8,0,22.2
					c0,2.7,0,2.7,2.8,2.7c10.4,0,20.8,0,31.2,0c4.7,0.2,9.5-0.1,14.2-0.7c3.4-0.5,6.8-1.7,9.8-3.4c6.6-3.9,10.7-11,10.8-18.6
					c0.4-4.3-0.3-8.5-1.9-12.5c-1.1-2.8-2.8-5.3-5-7.4c-4-3.7-9-6-14.4-6.6c-2.8-0.4-5.7-0.5-8.5-0.4c-12.3,0-24.7,0-37,0
					c-1.8,0-1.9,0.1-1.9,1.9C67.5,55.8,67.5,63.4,67.5,71L67.5,71z"/>
				<path id="Pfad_5" fill="#0C509B" d="M278.9,7.8c4.2-0.1,8.3,0.5,12.5,0.6c3.6,0.2,7.1,0.7,10.6,1.3c3.3,0.5,6.5,1.3,9.7,2.2
					c2.5,0.7,5,1.5,7.4,2.4c2.3,0.9,4.5,1.9,6.7,3c5.1,2.6,10,5.7,14.4,9.2c2,1.6,3.9,3.4,5.9,5.1c1,0.9,1,1,0,1.9
					c-4.6,4.5-9.2,9.1-13.8,13.6c-3.5,3.5-7,6.9-10.5,10.4c-0.7,0.7-0.8,0.7-1.6,0c-2.8-2.5-5.8-4.8-9.1-6.7
					c-2.4-1.4-4.9-2.5-7.5-3.4c-2-0.7-4-1.3-6.1-1.7c-2.9-0.7-5.9-1.1-8.8-1.4c-2-0.2-4-0.4-6-0.6c-2.7-0.2-5.4-0.3-8.1-0.1
					c-2.9,0.1-5.9,0.5-8.7,1.1c-3.9,0.8-7.6,2.3-10.9,4.6c-3.9,2.7-7,6.5-8.9,10.9c-1.8,4.4-2.4,9.2-1.8,14c0.5,5.2,3.2,10,7.4,13.2
					c2.7,2.2,5.8,3.9,9.1,4.9c1.9,0.7,3.9,1.2,5.9,1.7c2.1,0.5,4.3,0.8,6.5,1c1.8,0.1,3.5,0.7,5.3,0.8c2.9,0.2,5.8,1,8.7,1.2
					c1.1,0.1,2.2,0.3,3.3,0.6c2.7,0.5,5.3,0.8,8,1.2c2.2,0.3,4.3,0.8,6.5,1.2c2.6,0.5,5.2,1.2,7.7,2c3.9,1.2,7.7,2.7,11.3,4.5
					c5.4,2.7,10.3,6.3,14.4,10.7c3.5,3.7,6.4,8.1,8.4,12.8c1.3,3.1,2.4,6.2,3.2,9.4c1,4.3,1.7,8.6,2.1,13c0.4,3.9,0.4,7.8,0.2,11.7
					c-0.3,5.7-1.4,11.4-3.2,16.8c-2.6,7.3-6.7,14-12,19.6c-4.7,5-10.2,9.2-16.2,12.4c-4.2,2.2-8.6,4.1-13.1,5.6
					c-2.8,1-5.6,1.8-8.4,2.5c-2.7,0.7-5.6,1.2-8.4,1.6c-4.7,0.7-9.3,0.9-14,1.3c-4.6,0.1-9.2,0.1-13.8-0.3c-2.5-0.1-5.1-0.5-7.6-0.5
					c-1.6-0.1-3.2-0.3-4.8-0.6c-3.7-0.6-7.4-1.2-11.1-2.1c-4.5-1-9-2.4-13.3-4.1c-5.9-2.3-11.5-5.3-16.7-8.8
					c-4.4-3-8.6-6.4-12.4-10.1c-1.5-1.4-1.4-1.4-0.1-2.7c5.9-5.9,11.8-11.8,17.7-17.8c2.2-2.2,4.4-4.3,6.6-6.5c1-1,1.2-1,2.2-0.1
					c4.3,4,9.1,7.3,14.4,9.7c4.1,2,8.5,3.5,13,4.6c2.8,0.7,5.6,1.1,8.3,1.6c5.1,0.7,10.2,1.1,15.4,0.9c3.2,0.1,6.5-0.1,9.7-0.5
					c6.2-0.7,12.2-2.7,17.5-6c4.1-2.6,7.3-6.5,8.9-11.1c0.7-2.1,1.2-4.3,1.3-6.5c0.3-3.8-0.1-7.7-1.2-11.3
					c-1.5-5.2-5.1-9.7-9.9-12.2c-3.6-1.9-7.6-3.3-11.6-3.9c-4.8-0.9-9.6-1.4-14.4-2.1c-4.6-0.6-9.1-1.3-13.7-1.9
					c-6.7-0.9-13.4-2.4-19.9-4.6c-8.3-2.7-15.8-7.1-22.1-13.1c-3.8-3.7-6.9-8.1-9.3-12.9c-1.9-3.9-3.4-7.9-4.3-12.1
					c-0.8-3.3-1.3-6.7-1.4-10.2c0-2.2-0.3-4.3-0.3-6.5c0-3.4,0.2-6.8,0.6-10.1c0.6-4.5,1.7-9,3.2-13.2c2.9-7.9,7.5-15,13.5-20.9
					c4.3-4.2,9.1-7.9,14.4-10.8c4.3-2.4,8.9-4.3,13.7-5.6c3.7-1.1,7.4-1.9,11.2-2.5C266.9,8.3,272.9,7.9,278.9,7.8z"/>
				<path id="Pfad_6" fill="#0C509B" d="M620.9,17.9c0.2,8.9-6.9,16.4-15.8,16.6c-8.9,0.2-16.4-6.9-16.6-15.8
					c-0.2-8.9,6.9-16.4,15.8-16.6c0.2,0,0.5,0,0.7,0c8.7-0.1,15.8,6.8,15.9,15.5C620.9,17.7,620.9,17.8,620.9,17.9z M604.5,31.6
					c5.9,0.2,11.1-3.6,12.8-9.2c1.1-3.5,0.9-7.3-0.7-10.6c-2.6-5.8-9.2-8.8-15.3-7c-7.2,2.1-11.4,9.7-9.2,17
					c0.2,0.7,0.5,1.4,0.8,2.1C594.8,28.5,599.4,31.6,604.5,31.6L604.5,31.6z"/>
				<path id="Pfad_7" fill="#0C509B" d="M407.7,272.9v-11c0-0.2,0-0.4,0-0.6c0-0.5-0.1-1.1,0.5-1.2c0.6-0.3,1.4-0.2,1.9,0.3
					c0.3,0.3,0.5,0.6,0.7,0.9c4.1,6.1,8.1,12.1,12.2,18.2c0.1,0.1,0.1,0.3,0.2,0.4c0.2,0.3,0.4,0.6,0.8,0.5c0.3-0.1,0.3-0.5,0.3-0.8
					c0-3,0-6.1,0-9.1c0-3,0-6.1,0-9.1c0-1.4,0.3-1.5,1.6-1.4c0.6,0.1,0.9,0.3,0.9,0.9c0,0.9,0,1.9,0,2.8c0,6.7,0,13.3,0,20
					c0,0.2,0,0.4,0,0.6c-0.1,0.5,0.2,1.2-0.6,1.5c-0.8,0.2-1.7,0-2.2-0.7c-2.2-3.1-4.3-6.4-6.4-9.7c-2-3.1-4-6.1-6-9.2
					c-0.3-0.5-0.6-1.4-1.4-1.1c-0.6,0.2-0.4,1-0.4,1.6c0,5.7,0,11.4,0,17c0,0.3,0,0.6,0,0.9c0,1-0.1,1.1-1.1,1.1
					c-1,0-1.1-0.1-1.1-1.1C407.7,280.8,407.7,276.8,407.7,272.9L407.7,272.9z"/>
				<path id="Pfad_8" fill="#0C509B" d="M231.3,273c0,3.7,0,7.4,0,11.2c0,0.6,0.3,1.4-0.6,1.6c-0.8,0.3-1.7-0.1-2.1-0.9
					c-1.4-2-2.7-4.1-4-6.1c-2.9-4.4-5.8-8.7-8.7-13c-0.1-0.2-0.2-0.3-0.4-0.5c-0.3-0.3-0.7-0.2-0.8,0.2c0,0.3,0,0.7,0,1
					c0,5.7,0,11.4,0,17c0,0.4,0,0.8,0,1.2c-0.1,1-0.2,1.1-1.2,1.1c-1.1,0-1.2-0.1-1.2-1.2c0-7.7,0-15.4,0-23.1c0-0.3,0-0.6,0-0.9
					c0-0.2,0.2-0.5,0.4-0.6c0.9-0.3,1.9,0,2.5,0.7c2.2,3.3,4.3,6.5,6.4,9.8c2,3.1,4.1,6.1,6.1,9.1c0.1,0.2,0.3,0.4,0.5,0.5
					c0.2,0.2,0.6,0.2,0.8,0c0.1-0.1,0.2-0.3,0.2-0.4c0.1-0.4,0.1-0.8,0.1-1.2c0-5.5,0-11.1,0-16.6c0-0.2,0-0.5,0-0.7
					c0-1.1,0.2-1.4,1.1-1.3c0.9,0,1,0.2,1,1.4c0,1.7,0,3.4,0,5.1L231.3,273L231.3,273z"/>
				<path id="Pfad_9" fill="#0C509B" d="M80.2,285.7c-0.4,0.1-0.8,0.2-1.2,0.1c-0.7,0.1-1.5-0.3-1.7-1c-1.6-3.2-3.2-6.4-4.8-9.5
					c-0.3-0.9-1.2-1.5-2.2-1.4c-1.1,0-2.2,0-3.2,0c-1.9,0-2.1,0.2-2.1,2.1c0,2,0,3.9,0,5.9c0,1,0,2.1,0,3.1c0,0.8-0.2,0.9-1.1,0.9
					c-1,0-1.1-0.1-1.1-1c0-0.9,0-1.9,0-2.8c0-6.7,0-13.4,0-20.1c0-0.4,0-0.8,0-1.2c0-0.4,0.3-0.7,0.6-0.7c0,0,0.1,0,0.1,0
					c3.7-0.2,7.4-0.1,11.1,0.2c2,0.2,3.8,1.4,4.6,3.2c1.9,3.2,0.9,7.4-2.4,9.4c-0.4,0.2-0.9,0.5-1.3,0.6c-1.4,0.5-1.4,0.6-0.7,1.8
					c1.7,3.2,3.4,6.4,5.1,9.6C80.1,285,80.3,285.2,80.2,285.7z M64.9,267L64.9,267c0,1.3,0,2.5,0,3.8c0,0.9,0.3,1.2,1.3,1.3
					c2.2,0,4.5,0.1,6.8-0.1c2.5,0.1,4.7-1.8,4.8-4.4c0,0,0,0,0,0c0.5-2.5-1.1-5-3.6-5.5c-0.3-0.1-0.5-0.1-0.8-0.1
					c-2.4-0.2-4.8-0.1-7.2,0c-1,0-1.2,0.2-1.2,1.2C64.9,264.5,64.9,265.8,64.9,267L64.9,267z"/>
				<path id="Pfad_10" fill="#0C509B" d="M550.8,272.8c0-3.7,0-7.4,0-11.2c0-1.6,0-1.7,1.6-1.7c3,0,6,0,9,0c3.8-0.1,7,2.9,7.1,6.7
					c0,1.3-0.3,2.6-0.9,3.7c-0.8,1.4-2.1,2.5-3.7,3c-1.2,0.5-1.3,0.7-0.7,1.9c1,2,2.1,4,3.2,5.9c0.7,1.2,1.4,2.5,2,3.8
					c0.3,0.6,0.2,0.8-0.5,0.8c-1,0.3-2.1-0.3-2.5-1.3c-1-2.3-2.2-4.5-3.3-6.7c-0.5-1-1-1.9-1.5-2.8c-0.3-0.7-1.1-1.2-1.9-1.1
					c-1.3,0-2.6,0-4,0c-1.2,0-1.4,0.2-1.4,1.4c-0.1,2.6,0,5.3,0,7.9c0,0.4,0,0.8,0,1.2c0,1.4,0,1.4-1.4,1.4c-1.1,0-1.1,0-1.1-1.2
					c0-2,0-3.9,0-5.9C550.8,276.7,550.8,274.8,550.8,272.8L550.8,272.8z M553.4,267L553.4,267c0,0.6,0,1.3,0,1.9
					c0,0.6,0,1.3,0.1,1.9c0.1,1.1,0.2,1.3,1.3,1.3c2.1,0,4.1,0.1,6.2,0c1.1,0,2.1-0.3,3.1-0.8c2-1.3,2.8-3.8,2-6.1
					c-0.7-1.9-2.5-3.2-4.5-3.2c-2.3-0.1-4.6-0.1-6.9,0c-1,0-1.2,0.2-1.2,1.2C553.3,264.5,553.4,265.7,553.4,267L553.4,267z"/>
				<path id="Pfad_11" fill="#0C509B" d="M159.8,285.5c-0.6,0.4-1,0.2-1.4,0.3c-0.7,0.2-1.5-0.3-1.8-1c-1-2.1-2.1-4.2-3.1-6.3
					c-0.6-1.3-1.3-2.5-2-3.8c-0.2-0.5-0.7-0.8-1.3-0.8c-1.6,0-3.1,0-4.7,0c-0.9,0-1.2,0.4-1.2,1.5c0,1.8,0,3.5,0,5.3
					c0,1.2,0,2.4,0,3.7c0,1.3-0.1,1.5-1.2,1.5c-1,0-1.1-0.1-1.1-1.4c0-4.6,0-9.1,0-13.7c0-3.1,0-6.3,0-9.4c0-1.3,0-1.4,1.3-1.4
					c3,0,6,0,9,0c2.2-0.1,4.4,0.9,5.8,2.6c2.3,3,1.8,7.4-1.2,9.7c-0.5,0.4-1,0.7-1.5,0.9c-1.7,0.8-1.7,0.8-0.9,2.5
					c1.3,2.5,2.6,4.9,4,7.4C158.7,283.9,159.2,284.7,159.8,285.5z M144.3,267L144.3,267c0,1.3,0,2.5,0,3.8c0,1.1,0.3,1.4,1.4,1.4
					c2,0,3.9,0,5.9,0c1.1,0,2.2-0.2,3.2-0.8c1.9-1.2,2.8-3.6,2.1-5.7c-0.5-2-2.2-3.5-4.3-3.5c-2.4-0.1-4.8-0.1-7.2,0
					c-0.9,0-1.1,0.2-1.2,1.2C144.3,264.4,144.3,265.7,144.3,267z"/>
				<path id="Pfad_12" fill="#0C509B" d="M341.3,273.1v-10.9c0-0.4,0-0.8,0-1.2c0-0.8,0.4-1.1,1.1-1.1c1.1,0,2.3,0,3.4,0
					c2,0,4-0.1,6,0c2.5-0.1,4.9,1.2,6.1,3.5c1.9,3.3,0.7,7.5-2.6,9.4c-0.1,0.1-0.2,0.1-0.3,0.2c-0.3,0.1-0.6,0.3-0.9,0.4
					c-1.1,0.4-1.2,0.7-0.6,1.7c0.9,1.8,1.9,3.5,2.8,5.3c0.8,1.4,1.5,2.8,2.3,4.3c0.5,0.9,0.4,1-0.6,1.1c-0.9,0.2-1.9-0.3-2.2-1.2
					c-1.5-3.2-3.2-6.3-4.8-9.4c-0.3-0.8-1.1-1.3-2-1.2c-1.3,0-2.6,0-4,0c-1.2,0-1.4,0.2-1.4,1.4c-0.1,1.7,0,3.4,0,5.1
					c0,1.3,0,2.6,0,4c0,1.4-0.1,1.5-1.2,1.4c-1,0-1.1-0.1-1.1-1.4c0-3.3,0-6.6,0-9.8L341.3,273.1L341.3,273.1z M343.6,266.9
					c0,1.3,0,2.5,0,3.8c0.1,1.2,0.3,1.4,1.4,1.4c0.7,0,1.5,0,2.2,0c1.8,0.1,3.5,0,5.3-0.2c2.5-0.4,4.3-2.7,4-5.2
					c0-2.5-2-4.6-4.5-4.7c-0.1,0-0.1,0-0.2,0c-2.3-0.1-4.6,0-6.9,0c-1,0-1.2,0.2-1.2,1.2C343.6,264.4,343.6,265.7,343.6,266.9
					L343.6,266.9z"/>
				<path id="Pfad_13" fill="#0C509B" d="M293.1,273v-11.2c0-0.2,0-0.4,0-0.6c0-1.1,0.1-1.2,1-1.2c1,0,1.2,0.2,1.3,1.3
					c0,0.7,0,1.5,0,2.2c0,2.2,0,4.4,0,6.6c0,1.4,0.2,1.7,1.6,1.7c3.3,0,6.7,0,10,0c1.3,0,1.4-0.2,1.5-1.5c0-2.7,0-5.5,0-8.2
					c0-0.3,0-0.7,0-1c0.1-0.9,0.2-1,1.2-1c1,0,1.2,0.1,1.2,1.1c0,3.4,0,6.8,0,10.1c0,4.1,0,8.2,0,12.3c0,0.4,0,0.8,0,1.2
					c-0.1,1-0.3,1.1-1.3,1.1c-0.9,0-1.1-0.2-1.1-1.1c0-2.7,0-5.5,0-8.2c0-0.4,0-0.9,0-1.3c-0.1-1.2-0.2-1.5-1.5-1.5
					c-3.4-0.1-6.8,0-10.1,0c-1.1,0-1.4,0.4-1.4,1.6c0,2.6,0,5.3,0,7.9c0,0.5,0,1.1,0,1.6c-0.1,1-0.2,1.1-1.1,1.1
					c-0.9,0-1.1-0.1-1.1-1.1c0-3.2,0-6.4,0-9.5L293.1,273L293.1,273z"/>
				<path id="Pfad_14" fill="#0C509B" d="M205,272.8c0,1.6,0,3.2,0,4.8c0,3.7-2.4,6.9-5.9,7.9c-1.3,0.4-2.6,0.5-3.9,0.3
					c-3.2-0.1-6-2-7.2-4.9c-0.5-1.1-0.7-2.3-0.7-3.6c-0.1-3-0.1-6.1,0-9.1c0.3-5,4.5-8.8,9.5-8.5c3,0.2,5.8,1.8,7.3,4.4
					c0.6,1.2,1,2.5,1,3.8C205.1,269.6,205.1,271.2,205,272.8L205,272.8z M202.8,273L202.8,273c0-1.8,0-3.5,0-5.3
					c-0.2-2.9-2.3-5.2-5.2-5.8c-1-0.1-2-0.1-3,0.1c-1.9,0.3-3.5,1.6-4.2,3.5c-0.5,1.2-0.7,2.4-0.7,3.7c0,2.5,0,5,0,7.5
					c0,1.1,0.2,2.1,0.6,3.2c1.3,3.4,5.1,5,8.4,3.7c2.5-1,4.1-3.4,4.1-6C202.8,276,202.8,274.5,202.8,273L202.8,273z"/>
				<path id="Pfad_15" fill="#0C509B" d="M452.1,260.1c0,0.5-0.3,0.9-0.6,1.2c-1.9,2.4-3.9,4.8-5.8,7.2c-0.9,1.1-0.9,1.6-0.2,2.8
					c2.6,4.4,5.2,8.8,7.7,13.1c0.2,0.2,0.3,0.5,0.4,0.8c0.1,0.3,0,0.5-0.3,0.5c-1,0.4-2.1-0.1-2.6-1c-2.2-3.8-4.3-7.6-6.5-11.3
					c-1.1-1.9-1.3-1.9-2.7-0.2c-1.2,1.4-2.4,2.9-3.6,4.3c-0.6,0.6-0.9,1.4-0.9,2.3c0,1.6,0,3.2,0,4.9c0,1.1-0.7,1.5-1.8,1.1
					c-0.2-0.1-0.4-0.3-0.4-0.5c0-0.3,0-0.6,0-0.9c0-7.6,0-15.2,0-22.8c0-0.1,0-0.3,0-0.4c0.1-1,0.2-1.1,1.1-1.1
					c0.9,0,1.1,0.2,1.1,1.1c0,2.9,0,5.8,0,8.7c0,1.2,0,2.4,0,3.7c0,0.4,0,0.8,0.4,1s0.7-0.2,1-0.5c1.8-2.2,3.5-4.3,5.3-6.5
					c1.7-2.1,3.5-4.1,5.1-6.3C449.6,260.1,450.9,259.7,452.1,260.1z"/>
				<path id="Pfad_16" fill="#0C509B" d="M374.9,272.9v-11.2c0-0.3,0-0.6,0-0.9c0-0.5,0.2-0.8,0.8-0.8c0.2,0,0.4,0,0.6,0
					c4.5,0,8.9,0,13.4,0c1.1,0,1.3,0.3,1.2,1.3c-0.1,0.8-0.7,0.7-1.2,0.7c-3.2,0-6.5,0-9.7,0c-0.5,0-1,0-1.5,0
					c-0.9,0.1-1.2,0.2-1.2,1.1c0,2.5-0.1,5,0,7.5c0,1,0.3,1.2,1.5,1.2c2.7,0,5.5,0,8.2,0c0.3,0,0.7,0,1,0c0.4-0.1,0.8,0.2,0.8,0.6
					c0,0.1,0,0.1,0,0.2c0,0.6-0.2,1-0.8,1c-0.8,0-1.7,0-2.5,0c-2.2,0-4.4,0-6.6,0c-1.3,0-1.6,0.3-1.6,1.5c0,2.3,0,4.7,0,7
					c0,1.4,0.3,1.6,1.7,1.6c3.6,0,7.2,0,10.9,0c1,0,1.1,0.1,1.1,1.1c0,0.7-0.3,0.9-1,0.9c-4.7,0-9.3,0-14,0c-1,0-1-0.1-1-1.2
					C374.8,280.7,374.9,276.8,374.9,272.9L374.9,272.9z"/>
				<path id="Pfad_17" fill="#0C509B" d="M119.7,272.9c0-3.8,0-7.5,0-11.3c0-1.5,0-1.6,1.6-1.6c4.2,0,8.3,0,12.5,0c0.3,0,0.7,0,1,0
					c0.7,0,0.7,0.5,0.7,1c0,0.5-0.1,0.9-0.7,0.9c-0.4,0-0.8,0-1.2,0c-3.3,0-6.7,0-10,0c-1.6,0-1.7,0.1-1.7,1.7c0,2.2,0,4.3,0,6.5
					c0,1.4,0.2,1.6,1.6,1.6c3,0,6,0,9,0c1,0,1.2,0.3,1.1,1.1c-0.1,0.7-0.6,0.7-1.1,0.7c-2.6,0-5.3,0-7.9,0c-2.6,0-2.7,0.1-2.7,2.7
					c0,1.8,0,3.6,0,5.4c0,1.9,0.2,2.1,2.1,2.1c2.9,0,5.8,0,8.7,0c0.6,0,1.2,0,1.8,0c0.9,0.1,1.1,0.3,1,1.2c0,0.5-0.2,0.8-0.7,0.8
					c-0.2,0-0.5,0-0.7,0c-4.3,0-8.6,0-12.9,0c-1.5,0-1.5,0-1.5-1.5C119.7,280.5,119.7,276.7,119.7,272.9L119.7,272.9z"/>
				<path id="Pfad_18" fill="#0C509B" d="M96.3,273c0-3.8,0-7.6,0-11.5c0-1.5,0-1.5,1.6-1.5c2.9,0,5.8,0,8.7,0c2-0.1,4,0.7,5.4,2.2
					c1.8,1.8,2.4,4.5,1.8,6.9c-0.4,2.3-2,4.1-4.1,5c-1.3,0.5-2.7,0.7-4.2,0.7c-1.7,0-3.3,0-5,0c-1.6,0-1.9,0.2-1.9,1.9
					c0,2.6,0,5.2,0,7.8c0,1.1-0.1,1.2-1,1.2c-1.1,0.1-1.3-0.1-1.3-1.2C96.3,280.7,96.3,276.8,96.3,273L96.3,273z M98.6,267.5
					c0,1.4,0,2.7,0,4.1c0,1.1,0.3,1.3,1.3,1.4c2.1,0,4.2,0.1,6.3,0c2.2,0.1,4.3-1.3,5-3.4c1.2-2.7,0-5.9-2.8-7
					c-0.7-0.3-1.4-0.4-2.1-0.4c-2.1,0-4.1,0-6.2,0c-1.4,0-1.5,0.2-1.6,1.5C98.6,264.8,98.6,266.1,98.6,267.5L98.6,267.5z"/>
				<path id="Pfad_19" fill="#0C509B" d="M54.5,272.8v11.3c0,0.2,0,0.5,0,0.7c-0.1,0.9-0.2,1-1.1,1c-0.9,0-1.1-0.1-1.1-1
					c0-2.8,0-5.7,0-8.5c0-2.6-0.1-2.7-2.7-2.7c-2.6,0-5.3,0-7.9,0c-0.2,0-0.5,0-0.7,0c-1.6,0.1-1.8,0.3-1.8,1.9c0,3,0,6.1,0,9.1
					c0,0.6,0,1.2-0.9,1.2c-1.1,0-1.3,0-1.3-1.2c0-7.6,0-15.3,0-22.9c0-0.1,0-0.1,0-0.1c0-1.3,0.2-1.5,1-1.5c0.9,0,1.1,0.2,1.1,1.5
					c0,1,0,2.1,0,3.1c0,1.9,0,3.7,0,5.6c0,1.4,0.2,1.6,1.6,1.6c3.3,0,6.7,0,10,0c1.3,0,1.6-0.2,1.6-1.5c0-2.7,0-5.5,0-8.2
					c0-0.3,0-0.6,0-0.9c0.1-0.9,0.2-1.1,1.1-1.1c0.9,0,1,0.2,1,1.2C54.5,265,54.5,268.9,54.5,272.8L54.5,272.8z"/>
				<path id="Pfad_20" fill="#0C509B" d="M318.8,272.9c0-3.8,0-7.6,0-11.5c0-1.5,0-1.5,1.4-1.5c4.4,0,8.7,0,13.1,0
					c0.5,0,1.1-0.2,1.4,0.5c0.3,0.9-0.1,1.4-1.1,1.5c-3.4,0-6.9,0-10.3,0c-2,0-2,0-2,1.9c0,2.1,0,4.1,0,6.2c0,1.5,0.1,1.6,1.7,1.7
					c2.6,0,5.2,0,7.8,0c0.4,0,0.9,0,1.3,0c0.6,0,0.7,0.4,0.7,0.9c0,0.4-0.1,0.8-0.6,0.8c-0.3,0-0.7,0-1,0c-2.7,0-5.4,0-8.1,0
					c-1.6,0-1.7,0.2-1.7,1.8c0,2.3,0,4.5,0,6.8c0,1.4,0.2,1.6,1.6,1.6c3.1,0,6.3,0,9.4,0c0.4,0,0.9,0,1.3,0c1,0.1,1.2,0.3,1.1,1.3
					c0,0.5-0.2,0.7-0.7,0.7c-0.3,0-0.6,0-0.9,0h-12.6c-0.3,0-0.6,0-0.9,0c-0.6,0-0.8-0.3-0.8-0.8c0-0.7,0-1.4,0-2.1L318.8,272.9
					L318.8,272.9z"/>
				<path id="Pfad_21" fill="#0C509B" d="M499.4,270.4c-0.1,2.4,0.1,5.2-0.1,8c-0.2,2.6-1.7,5-4,6.3c-3.4,1.8-7.6,1.5-10.8-0.7
					c-1.9-1.6-3.1-4-3.1-6.6c-0.1-5.4,0-10.9,0-16.3c0-0.6-0.1-1.2,0.9-1.2c1.1,0,1.3,0.2,1.4,1.2c0.1,1.5,0.1,2.9,0.1,4.4
					c-0.1,4,0,7.9,0,11.9c0,3.7,3.1,6.6,6.8,6.6c1.3,0,2.5-0.4,3.5-1.1c1.2-0.7,2-1.7,2.4-3c0.4-1.2,0.6-2.5,0.7-3.7
					c-0.1-4.7,0-9.4,0-14.1c0-0.3,0-0.7,0-1c0-0.7,0.6-1.2,1.2-1.2c0.2,0,0.4,0.1,0.6,0.2c0.2,0.1,0.4,0.3,0.4,0.6c0,0.3,0,0.7,0,1
					C499.4,264.5,499.4,267.3,499.4,270.4z"/>
				<path id="Pfad_22" fill="#0C509B" d="M466.3,279.7c-1.4,0-2.8,0-4.3,0c-1.5,0-1.7,0.2-2.3,1.6c-0.4,1.1-0.8,2.3-1.3,3.4
					c-0.5,1-0.6,1.1-1.6,1.1c-0.7-0.1-0.9-0.2-0.6-0.9c0.6-1.6,1.2-3.2,1.7-4.8c1.1-3.1,2.3-6.1,3.4-9.2c1.2-3.3,2.5-6.6,3.7-9.9
					c0.1-0.6,0.7-1,1.3-0.9c0.7-0.1,1.3,0.3,1.4,1c1.7,4.5,3.3,9.1,5,13.6c1.1,3.1,2.3,6.1,3.4,9.2c0.1,0.1,0.2,0.3,0.1,0.4
					c-0.1,0.5,0.8,1.1,0,1.5c-0.8,0.4-1.7,0.1-2.1-0.7c0,0,0-0.1-0.1-0.1c-0.5-1.2-0.9-2.5-1.3-3.7c-0.4-1.2-0.6-1.5-2-1.5
					C469.3,279.7,467.8,279.7,466.3,279.7L466.3,279.7z M466.3,278c1.3,0,2.5,0,3.8,0c1.2,0,1.4-0.4,1.1-1.4
					c-1.2-3.7-2.4-7.3-3.8-10.9c-0.1-0.5-0.3-0.9-0.5-1.4c-0.2-0.4-0.6-0.5-0.9,0c-0.3,0.5-0.5,1.1-0.7,1.6c-1.3,3.5-2.5,7-3.8,10.5
					c-0.4,1.2-0.2,1.6,1.1,1.7C463.9,278,465.1,278,466.3,278L466.3,278z"/>
				<path id="Pfad_23" fill="#0C509B" d="M528.8,273c0-3.8,0-7.6,0-11.5c0-1.5,0.1-1.6,1.6-1.6c4.2,0,8.4,0,12.6,0
					c1.2,0,1.5,0.2,1.4,1.1c0,0.5-0.2,0.8-0.8,0.8c-0.5,0-1,0-1.5,0c-3.2,0-6.4,0-9.6,0c-1.5,0-1.7,0.2-1.7,1.7c0,2.1,0,4.2,0,6.3
					c0,1.5,0.3,1.7,1.7,1.7c2.7,0,5.5,0,8.2,0c0.3,0,0.7,0,1,0c0.5,0,0.6,0.4,0.6,0.8c0,0.4-0.1,0.8-0.6,0.9c-0.3,0-0.7,0.1-1,0
					c-2.6,0-5.3,0-7.9,0c-1.8,0-2,0.2-2,2c0,2,0,3.9,0,5.9c0,2.1,0.2,2.3,2.4,2.3c3,0,6,0,9,0c0.4,0,0.8,0,1.2,0
					c0.8,0.1,1,0.3,1,1.1c0,0.7-0.4,0.9-1,0.9c-1.1,0-2.2,0-3.2,0c-3.3,0-6.7,0-10,0c-1.5,0-1.5,0-1.5-1.4
					C528.7,280.5,528.7,276.7,528.8,273L528.8,273z"/>
				<path id="Pfad_24" fill="#0C509B" d="M172.7,285.9c-2.5,0.2-5-0.5-7.1-2c-0.2-0.1-0.3-0.2-0.5-0.4c-1-0.8-0.9-1.2,0-1.9
					c0.5-0.4,0.9-0.2,1.3,0.1c3,2.4,7,2.9,10.5,1.3c1.7-0.9,2.7-2.8,2.5-4.8c0-2.1-1.5-3.8-3.5-4.1c-1.4-0.4-2.9-0.7-4.3-0.8
					c-1.4-0.1-2.8-0.5-4-1.3c-2.5-1.5-3.6-4.7-2.6-7.4c0.7-2.4,2.6-4.2,5-4.7c3.1-0.9,6.4-0.4,9.2,1.3c0.4,0.3,0.9,0.5,0.8,1.1
					c-0.1,0.4-0.4,0.7-0.8,0.8c-0.3,0.1-0.7,0.1-1-0.2c-1.1-0.7-2.3-1.1-3.5-1.4c-1.9-0.5-3.9-0.2-5.5,0.8c-1.6,0.9-2.5,2.7-2.3,4.5
					c0,1.8,1.2,3.5,2.9,4c1.1,0.5,2.2,0.7,3.4,0.8c1.6,0.1,3.2,0.5,4.7,1.1c2.2,0.9,3.6,3,3.7,5.3c0.2,2.2-0.6,4.3-2.3,5.8
					c-1.2,1.1-2.8,1.7-4.4,1.8C174.3,285.9,173.5,285.9,172.7,285.9z"/>
				<path id="Pfad_25" fill="#0C509B" d="M507.1,273c0-3.8,0-7.6,0-11.5c0-1.5,0-1.5,1.5-1.5c4.3,0,8.6,0,12.9,0c0.2,0,0.4,0,0.6,0
					c0.7,0,1,0.3,1,1c0,0.6-0.2,1.1-0.9,1c-0.3,0-0.7,0-1,0c-3.3,0-6.6,0-9.8,0c-1.7,0-1.8,0.1-1.8,1.8c0,2.2,0,4.4,0,6.6
					c0,1.4,0.2,1.6,1.6,1.7c2.2,0,4.4,0,6.6,0c0.7,0,1.4,0,2.1,0c1.2,0,1.4,0.2,1.4,1c0,0.7-0.2,0.9-1.3,0.9c-2.1,0-4.1,0-6.2,0
					c-0.8,0-1.6,0-2.4,0c-1.6,0-1.8,0.2-1.8,1.9c0,1.2,0,2.3,0,3.5c0,1.7,0,3.3,0,5c0,1.2-0.3,1.4-1.5,1.4c-0.5,0-0.8-0.3-0.8-0.8
					c0-0.3,0-0.7,0-1C507.1,280.3,507.1,276.6,507.1,273z"/>
				<path id="Pfad_26" fill="#0C509B" d="M270.4,272.6c-0.1-1.7,0-3.4,0.2-5.1c0.6-4.8,4.9-8.3,9.8-7.8c0.7,0.1,1.3,0.2,2,0.5
					c1.3,0.4,2.5,1.1,3.5,2c0.5,0.4,0.5,0.7,0.1,1.1c-0.4,0.3-0.7,1.1-1.4,0.5c-0.4-0.4-0.9-0.7-1.4-1.1c-2.7-1.4-6.1-1-8.4,1
					c-0.8,0.9-1.4,2-1.6,3.2c-0.5,4-0.5,8,0.1,12c0.7,3.5,4.1,5.7,7.6,5c0.4-0.1,0.7-0.2,1-0.3c1-0.3,2-0.9,2.8-1.6
					c0.7-0.7,1,0.1,1.4,0.4c0.5,0.4,0.3,0.9-0.2,1.2c-1.5,1.3-3.3,2.1-5.3,2.3c-2.2,0.2-4.4-0.3-6.3-1.5c-2.2-1.6-3.6-4.1-3.7-6.9
					C270.3,275.9,270.3,274.2,270.4,272.6z"/>
				<path id="Pfad_27" fill="#0C509B" d="M241.8,271.8c0,3.2,0,6.4,0,9.5c0,0.4,0,0.8,0,1.2c0.1,1,0.3,1.2,1.3,1.2
					c1.6,0,3.1,0,4.7,0h6.3c0.6,0,1.1,0.1,1.2,0.8c0.1,0.9-0.1,1.2-1,1.2c-4.6,0-9.2,0-13.8,0c-0.9,0-1-0.1-1-1.2c0-2.9,0-5.9,0-8.8
					c0-4.6,0-9.1,0-13.7c0-0.3,0-0.7,0-1c0.1-0.9,0.2-1.1,1.2-1.1s1.1,0.1,1.1,1.1C241.8,264.7,241.8,268.3,241.8,271.8L241.8,271.8
					z"/>
				<path id="Pfad_28" fill="#0C509B" d="M28.6,273c0,3.8,0,7.6,0,11.5c0.1,0.7-0.4,1.4-1.1,1.4c-0.3,0-0.6,0-0.9-0.2
					c-0.2-0.1-0.4-0.3-0.4-0.6c0-0.4,0-0.9,0-1.3c0-7.3,0-14.6,0-21.9c0-0.2,0-0.4,0-0.6c0-1.2,0.8-1.7,1.9-1.3
					c0.3,0.1,0.5,0.3,0.5,0.6c0,0.4,0,0.8,0,1.2L28.6,273L28.6,273z"/>
				<path id="Pfad_29" fill="#0C509B" d="M263.3,272.9c0,3.8,0,7.6,0,11.5c0,1.3-0.2,1.5-1.4,1.4c-0.9-0.1-1-0.1-1-1.5
					c0-6.6,0-13.1,0-19.7c0-1.2,0-2.4,0-3.5c0-0.9,0.2-1,1.2-1c1,0,1.2,0.1,1.2,1c0,1.2,0,2.4,0,3.7
					C263.3,267.4,263.3,270.2,263.3,272.9L263.3,272.9z"/>
				<path id="Pfad_30" fill="#0C509B" d="M399.5,273c0,3.6,0,7.2,0,10.7c0,0.3,0,0.7,0,1c-0.1,1-0.2,1.1-1.1,1.1
					c-1,0-1.1-0.1-1.1-1.1c0-1.7,0-3.4,0-5.1c0-5.9,0-11.8,0-17.6c0-0.3,0-0.7,0-1c0.1-0.8,0.3-0.9,1.2-0.9c0.6,0,1,0.2,1,0.9
					c0,1.5,0,3,0,4.6C399.5,268,399.5,270.5,399.5,273L399.5,273z"/>
				<path id="Pfad_31" fill="#0C509B" d="M470.1,256.4c-0.6,0.1-1.1-0.3-1.2-0.9c0-0.1,0-0.2,0-0.3c-0.1-0.7,0.4-1.2,1.1-1.3
					c0.1,0,0.1,0,0.2,0c0.8,0,1.4,0.5,1.4,1.3c0,0,0,0,0,0c0,0.7-0.6,1.3-1.3,1.3C470.2,256.4,470.2,256.4,470.1,256.4z"/>
				<path id="Pfad_32" fill="#0C509B" d="M462.3,256.4c-0.6,0.1-1.2-0.3-1.3-1c0-0.1,0-0.1,0-0.2c-0.1-0.7,0.5-1.3,1.2-1.3
					c0,0,0,0,0,0c0.7,0,1.3,0.5,1.4,1.2c0,0.1,0,0.1,0,0.2C463.5,255.9,463,256.4,462.3,256.4C462.4,256.4,462.3,256.4,462.3,256.4z
					"/>
				<path id="Pfad_33" fill="#0C509B" d="M198.9,255.1c-0.1-0.6,0.4-1.2,1-1.2c0.1,0,0.2,0,0.2,0c0.7,0.1,1.2,0.7,1.3,1.4
					c0,0.7-0.6,1.2-1.2,1.2c0,0-0.1,0-0.1,0c-0.6,0-1.1-0.4-1.2-1C198.9,255.3,198.9,255.2,198.9,255.1z"/>
				<path id="Pfad_34" fill="#0C509B" d="M192.2,256.4c-0.7,0-1.3-0.5-1.3-1.2c0,0,0,0,0-0.1c0-0.7,0.6-1.3,1.3-1.3
					c0.7,0,1.3,0.6,1.3,1.3c0.1,0.6-0.4,1.2-1,1.3C192.4,256.4,192.3,256.4,192.2,256.4z"/>
				<path id="Pfad_35" fill="#0C509B" d="M599,18.3c0-2.3,0-4.5,0-6.8c0-1.3,0.2-1.6,1.5-1.7c2-0.3,4.1-0.3,6.2-0.1
					c1.8,0.1,3.4,1.1,4.3,2.7c1,1.7,0.5,3.8-1.1,5c-1.4,1.1-1.4,1.1-0.3,2.4c0.6,0.7,1,1.5,1.2,2.3c0.2,1.1,0.6,2.3,0.9,3.4
					c0.2,0.9,0.1,1-0.8,1.1c-1.4,0.1-1.6-0.1-2-1.5c-0.3-1-0.6-2-0.8-3c-0.3-1.4-1.6-2.5-3.1-2.4c-0.6,0-1.3,0-1.9,0
					c-0.9,0-1.1,0.2-1.1,1.1c0,1.4,0,2.8,0,4.3c0.1,0.8-0.5,1.5-1.3,1.6c-0.3,0-0.7,0-1-0.2c-0.5-0.2-0.5-0.7-0.5-1.1
					c0-1.6,0-3.1,0-4.7V18.3z M601.7,14.6L601.7,14.6c0,0.6,0,1.3,0,1.9c0,0.7,0.4,1,1.1,1.1c1.2,0,2.4-0.1,3.6-0.5
					c1.1-0.3,2-1.2,2.2-2.3c0-1.2-0.8-2.3-1.8-2.7c-1.3-0.5-2.8-0.7-4.2-0.4c-0.7,0-0.9,0.5-1,1.1C601.7,13.3,601.7,14,601.7,14.6
					L601.7,14.6z"/>
			</g>
		</g>
	</g>
</g>
</svg>
